{"title":"The Hobbit The Desolation of Smaug{greek subs}1080p","uid":9790569,"size":2208515691,"categoryP":"video","categoryS":"hd___movies","magnet":"?xt=urn:btih:29f0a88eac79ffd6b006ccabbef9a17a14709cf3&amp;dn=The+Hobbit+The+Desolation+of+Smaug%7Bgreek+subs%7D1080p&amp;tr=udp%3A%2F%2Ftracker.openbittorrent.com%3A80&amp;tr=udp%3A%2F%2Fopen.demonii.com%3A1337&amp;tr=udp%3A%2F%2Ftracker.coppersurfer.tk%3A6969&amp;tr=udp%3A%2F%2Fexodus.desync.com%3A6969","seeders":0,"leechers":1,"uploader":"12os","files":-1,"time":1395240819,"description":"The Hobbit The Desolation of Smaug..\nHobbit: I erimia tou Nosfisti se analysi 1080p kai ellinikous ypotitlous..\nOpoios thelei kanei seed kai sxolio an tou aresei to torrent...\n &lt;a href=&quot;\nhttp://www.imdb.com/title/tt1170358/&quot; rel=&quot;nofollow&quot; target=&quot;_NEW&quot;&gt;\nhttp://www.imdb.com/title/tt1170358/&lt;/a&gt;\n\nm/m/m/m/m/m/m/m/m/m/m/m/m/m/m/m/m/m/m/m/m/m/m/m/m/m/m\n\nFormat                                   : MPEG-4\nFormat profile                           : Base Media\nCodec ID                                 : isom\nFile size                                : 2.06 GiB\nDuration                                 : 2h 41mn\nOverall bit rate mode                    : Variable\nOverall bit rate                         : 1 826 Kbps\nEncoded date                             : UTC 2014-03-19 06:52:09\nTagged date                              : UTC 2014-03-19 06:52:09\n\nVideo\nID                                       : 1\nFormat                                   : AVC\nFormat/Info                              : Advanced Video Codec\nFormat profile                           : &lt;a class=&quot;__cf_email__&quot; href=&quot;/cdn-cgi/l/email-protection&quot; data-cfemail=&quot;7b33121c133b374f554a&quot;&gt;[email&amp;#160;protected]&lt;/a&gt;&lt;script cf-hash='f9e31' type=&quot;text/javascript&quot;&gt;\n/* &lt;![CDATA[ */!function(){try{var t=&quot;currentScript&quot;in document?document.currentScript:function(){for(var t=document.getElementsByTagName(&quot;script&quot;),e=t.length;e--;)if(t[e].getAttribute(&quot;cf-hash&quot;))return t[e]}();if(t&amp;&amp;t.previousSibling){var e,r,n,i,c=t.previousSibling,a=c.getAttribute(&quot;data-cfemail&quot;);if(a){for(e=&quot;&quot;,r=parseInt(a.substr(0,2),16),n=2;a.length-n;n+=2)i=parseInt(a.substr(n,2),16)^r,e+=String.fromCharCode(i);e=document.createTextNode(e),c.parentNode.replaceChild(e,c)}}}catch(u){}}();/* ]]&gt; */&lt;/script&gt;\nFormat settings, CABAC                   : Yes\nFormat settings, ReFrames                : 4 frames\nCodec ID                                 : avc1\nCodec ID/Info                            : Advanced Video Coding\nDuration                                 : 2h 41mn\nBit rate                                 : 1 728 Kbps\nMaximum bit rate                         : 9 670 Kbps\nWidth                                    : 1 920 pixels\nHeight                                   : 800 pixels\nDisplay aspect ratio                     : 2.40:1\nFrame rate mode                          : Constant\nFrame rate                               : 23.976 fps\nColor space                              : YUV\nChroma subsampling                       : 4:2:0\nBit depth                                : 8 bits\nScan type                                : Progressive\nBits/(Pixel*Frame)                       : 0.047\nStream size                              : 1.95 GiB (95%)\nWriting library                          : x264 core 135 r2 f0c1c53\nEncoding settings                        : cabac=1 / ref=4 / \n\n\nAudio\nID                                       : 2\nFormat                                   : AAC\nFormat/Info                              : Advanced Audio Codec\nFormat profile                           : LC\nCodec ID                                 : 40\nDuration                                 : 2h 41mn\nBit rate mode                            : Variable\nBit rate                                 : 93.7 Kbps\nMaximum bit rate                         : 104 Kbps\nChannel(s)                               : 2 channels\nChannel positions                        : Front: L R\nSampling rate                            : 48.0 KHz\nCompression mode                         : Lossy\nStream size                              : 108 MiB (5%)\nLanguage                                 : English\nEncoded date                             : UTC 2014-03-19 06:52:36\nTagged date                              : UTC 2014-03-19 06:52:40\n\n","torrent":{"xt":"urn:btih:29f0a88eac79ffd6b006ccabbef9a17a14709cf3","amp;dn":"The+Hobbit+The+Desolation+of+Smaug%7Bgreek+subs%7D1080p","amp;tr":["udp%3A%2F%2Ftracker.openbittorrent.com%3A80","udp%3A%2F%2Fopen.demonii.com%3A1337","udp%3A%2F%2Ftracker.coppersurfer.tk%3A6969","udp%3A%2F%2Fexodus.desync.com%3A6969"],"infoHash":"29f0a88eac79ffd6b006ccabbef9a17a14709cf3","infoHashBuffer":{"type":"Buffer","data":[41,240,168,142,172,121,255,214,176,6,204,171,190,249,161,122,20,112,156,243]},"announce":[],"urlList":[]}}